<svg xmlns="http://www.w3.org/2000/svg" viewBox="0 0 173.17 124.25"><defs><style>.cls-1{fill:#f6a613;}.cls-2{font-size:15.96px;fill:#1d1d1b;font-family:SegoeUI-Semilight, Segoe UI;font-weight:300;}.cls-3{letter-spacing:0.04em;}.cls-4{letter-spacing:-0.01em;}.cls-5{letter-spacing:0.01em;}</style></defs><g id="Capa_2" data-name="Capa 2"><g id="Capa_1-2" data-name="Capa 1"><path d="M79.72,99.9H7.66L0,85.62H73.92s4.94.58,3.14-6.05L51.35,30.13H66.67l22.12,41S103.37,95.91,79.72,99.9Z"/><path class="cls-1" d="M126.06,85.82c-.7,0-31.06-55.69-31.06-55.69H78L117.78,99.9c9.37,0,17.2.6,25.91-3.4,8.18-3.76,15.65-9.4,20.63-17,8.14-12.41,10.74-28.43,7.5-43-3-13.44-12.67-23.76-24.46-30.27C133.63-1.31,120.18.1,105.06.1H40.77c-10.63,0-21.32.49-26,11.8-5.28,12.67,3.13,22.83,9.1,33.33L37.71,69.62l.15.26H54.63S28.74,28.26,27.71,22.05s4.14-7.24,4.14-7.24H79c15.3,0,30.62-.08,45.91,0a33.66,33.66,0,0,1,28.59,15.64C165.89,50.38,152.43,87.15,126.06,85.82Z"/><text class="cls-2" transform="translate(5.62 117.98)">Se<tspan class="cls-3" x="16.4" y="0">r</tspan><tspan x="22.45" y="0">vice Di</tspan><tspan class="cls-4" x="67.79" y="0">v</tspan><tspan x="75.13" y="0">e</tspan><tspan class="cls-5" x="83.33" y="0">r</tspan><tspan x="88.84" y="0">sity &amp; Data</tspan></text></g></g></svg>